<svg width="44" height="25" viewBox="0 0 44 25" fill="none" xmlns="http://www.w3.org/2000/svg">
<path d="M43.444 4.23713C43.7501 4.23713 44 3.9707 44 3.67174V0.734824C44 0.423651 43.764 0.169434 43.444 0.169434H0.555967C0.24998 0.169434 0 0.435861 0 0.734824V3.67174C0 3.98291 0.236033 4.23713 0.555967 4.23713H43.444V4.23713Z" fill="black"/>
<path d="M0 13.8412C0 14.1523 0.236033 14.4066 0.555967 14.4066H43.444C43.7499 14.4066 43.9999 14.1401 43.9999 13.8412V10.9043C43.9999 10.591 43.7639 10.3389 43.444 10.3389H0.555967C0.24998 10.3389 0 10.6054 0 10.9043V13.8412Z" fill="black"/>
<path d="M0 24.011C0 24.3222 0.236033 24.5764 0.555967 24.5764H43.444C43.7499 24.5764 43.9999 24.3099 43.9999 24.011V21.0741C43.9999 20.7629 43.7639 20.5088 43.444 20.5088H0.555967C0.24998 20.5088 0 20.7752 0 21.0741V24.011Z" fill="black"/>
</svg>
