<svg width="39" height="39" viewBox="0 0 39 39" fill="none" xmlns="http://www.w3.org/2000/svg">
<path d="M34.4297 0H4.57031C2.05024 0 0 2.05024 0 4.57031V34.4297C0 36.9498 2.05024 39 4.57031 39H34.4297C36.9498 39 39 36.9498 39 34.4297V4.57031C39 2.05024 36.9498 0 34.4297 0ZM35.9531 34.4297C35.9531 35.2697 35.2697 35.9531 34.4297 35.9531H25.7461V23.5371H30.4528L31.2305 18.8145H25.7461V15.5391C25.7461 14.246 26.7382 13.2539 28.0312 13.2539H31.1543V8.53125H28.0312C24.1523 8.53125 21.0251 11.6733 21.0251 15.5523V18.8145H16.4531V23.5371H21.0251V35.9531H4.57031C3.73029 35.9531 3.04688 35.2697 3.04688 34.4297V4.57031C3.04688 3.73029 3.73029 3.04688 4.57031 3.04688H34.4297C35.2697 3.04688 35.9531 3.73029 35.9531 4.57031V34.4297Z" fill="black" fill-opacity="0.72"/>
</svg>
