<svg width="513" height="209" viewBox="0 0 513 209" fill="none" xmlns="http://www.w3.org/2000/svg">
<g filter="url(#filter0_d)">
<g filter="url(#filter1_f)">
<rect x="122" y="122" width="269" height="64" fill="#306BA2" fill-opacity="0.81"/>
</g>
<path d="M189.143 187C189.075 186.865 189.02 186.623 188.978 186.276C188.432 186.843 187.78 187.127 187.022 187.127C186.345 187.127 185.789 186.937 185.353 186.556C184.921 186.171 184.706 185.684 184.706 185.096C184.706 184.381 184.976 183.826 185.518 183.433C186.064 183.035 186.83 182.836 187.816 182.836H188.958V182.296C188.958 181.886 188.836 181.56 188.59 181.319C188.345 181.073 187.983 180.951 187.505 180.951C187.086 180.951 186.735 181.056 186.451 181.268C186.168 181.48 186.026 181.736 186.026 182.036H184.845C184.845 181.693 184.966 181.363 185.207 181.046C185.452 180.724 185.783 180.47 186.197 180.284C186.616 180.098 187.075 180.005 187.575 180.005C188.366 180.005 188.986 180.204 189.435 180.602C189.883 180.995 190.116 181.539 190.133 182.233V185.394C190.133 186.025 190.213 186.526 190.374 186.898V187H189.143ZM187.194 186.105C187.562 186.105 187.911 186.01 188.241 185.819C188.571 185.629 188.81 185.381 188.958 185.077V183.667H188.038C186.599 183.667 185.88 184.089 185.88 184.931C185.88 185.299 186.003 185.587 186.248 185.794C186.493 186.001 186.809 186.105 187.194 186.105ZM193.25 187H192.075V177.25H193.25V187ZM196.411 187H195.236V177.25H196.411V187ZM204.84 181.186C204.663 181.156 204.47 181.141 204.263 181.141C203.493 181.141 202.97 181.469 202.695 182.125V187H201.521V180.132H202.663L202.682 180.925C203.067 180.312 203.613 180.005 204.32 180.005C204.548 180.005 204.722 180.035 204.84 180.094V181.186ZM207.202 187H206.027V180.132H207.202V187ZM205.932 178.31C205.932 178.12 205.989 177.959 206.104 177.828C206.222 177.696 206.396 177.631 206.624 177.631C206.853 177.631 207.026 177.696 207.145 177.828C207.263 177.959 207.322 178.12 207.322 178.31C207.322 178.5 207.263 178.659 207.145 178.786C207.026 178.913 206.853 178.977 206.624 178.977C206.396 178.977 206.222 178.913 206.104 178.786C205.989 178.659 205.932 178.5 205.932 178.31ZM208.808 183.509C208.808 182.438 209.055 181.588 209.55 180.957C210.045 180.322 210.701 180.005 211.518 180.005C212.356 180.005 213.01 180.301 213.479 180.894L213.537 180.132H214.609V186.835C214.609 187.724 214.345 188.424 213.816 188.936C213.291 189.448 212.584 189.704 211.696 189.704C211.201 189.704 210.716 189.598 210.242 189.387C209.768 189.175 209.406 188.885 209.157 188.517L209.766 187.812C210.27 188.435 210.885 188.746 211.613 188.746C212.185 188.746 212.629 188.585 212.946 188.263C213.268 187.942 213.429 187.489 213.429 186.905V186.314C212.959 186.856 212.318 187.127 211.505 187.127C210.701 187.127 210.05 186.803 209.55 186.156C209.055 185.508 208.808 184.626 208.808 183.509ZM209.988 183.642C209.988 184.417 210.147 185.026 210.464 185.47C210.782 185.91 211.226 186.13 211.797 186.13C212.538 186.13 213.082 185.794 213.429 185.121V181.985C213.069 181.329 212.529 181.001 211.81 181.001C211.239 181.001 210.792 181.224 210.471 181.668C210.149 182.112 209.988 182.77 209.988 183.642ZM217.561 180.963C218.082 180.324 218.759 180.005 219.592 180.005C221.044 180.005 221.776 180.824 221.789 182.461V187H220.614V182.455C220.61 181.96 220.496 181.594 220.271 181.357C220.051 181.12 219.707 181.001 219.237 181.001C218.856 181.001 218.522 181.103 218.234 181.306C217.946 181.509 217.722 181.776 217.561 182.106V187H216.387V177.25H217.561V180.963ZM225.14 178.469V180.132H226.422V181.04H225.14V185.299C225.14 185.574 225.197 185.781 225.312 185.921C225.426 186.056 225.62 186.124 225.896 186.124C226.031 186.124 226.217 186.099 226.454 186.048V187C226.145 187.085 225.845 187.127 225.553 187.127C225.028 187.127 224.632 186.968 224.366 186.651C224.099 186.333 223.966 185.883 223.966 185.299V181.04H222.715V180.132H223.966V178.469H225.14ZM231.799 185.178C231.799 184.861 231.678 184.615 231.437 184.442C231.2 184.264 230.783 184.112 230.187 183.985C229.594 183.858 229.122 183.706 228.771 183.528C228.424 183.35 228.166 183.139 227.997 182.893C227.832 182.648 227.749 182.356 227.749 182.017C227.749 181.454 227.986 180.978 228.46 180.589C228.938 180.2 229.548 180.005 230.288 180.005C231.067 180.005 231.697 180.206 232.18 180.608C232.666 181.01 232.91 181.524 232.91 182.15H231.729C231.729 181.829 231.591 181.552 231.316 181.319C231.046 181.086 230.703 180.97 230.288 180.97C229.861 180.97 229.526 181.063 229.285 181.249C229.044 181.435 228.923 181.679 228.923 181.979C228.923 182.263 229.035 182.476 229.26 182.62C229.484 182.764 229.888 182.902 230.472 183.033C231.06 183.164 231.536 183.32 231.9 183.502C232.264 183.684 232.533 183.904 232.707 184.163C232.884 184.417 232.973 184.728 232.973 185.096C232.973 185.709 232.728 186.202 232.237 186.575C231.746 186.943 231.109 187.127 230.326 187.127C229.776 187.127 229.289 187.03 228.866 186.835C228.443 186.64 228.111 186.369 227.87 186.022C227.633 185.671 227.514 185.292 227.514 184.886H228.688C228.71 185.28 228.866 185.593 229.158 185.826C229.454 186.054 229.844 186.168 230.326 186.168C230.771 186.168 231.126 186.08 231.393 185.902C231.663 185.72 231.799 185.479 231.799 185.178ZM241.047 181.186C240.87 181.156 240.677 181.141 240.47 181.141C239.7 181.141 239.177 181.469 238.902 182.125V187H237.728V180.132H238.87L238.889 180.925C239.274 180.312 239.82 180.005 240.527 180.005C240.755 180.005 240.929 180.035 241.047 180.094V181.186ZM244.856 187.127C243.925 187.127 243.167 186.822 242.583 186.213C242 185.599 241.708 184.78 241.708 183.756V183.541C241.708 182.859 241.837 182.252 242.095 181.719C242.357 181.181 242.721 180.762 243.187 180.462C243.656 180.157 244.164 180.005 244.71 180.005C245.603 180.005 246.297 180.299 246.792 180.887C247.287 181.475 247.535 182.318 247.535 183.414V183.902H242.882C242.899 184.579 243.096 185.127 243.472 185.546C243.853 185.961 244.335 186.168 244.919 186.168C245.334 186.168 245.685 186.084 245.973 185.915C246.261 185.745 246.513 185.521 246.729 185.242L247.446 185.8C246.87 186.685 246.007 187.127 244.856 187.127ZM244.71 180.97C244.236 180.97 243.838 181.143 243.517 181.49C243.195 181.833 242.996 182.315 242.92 182.938H246.36V182.849C246.326 182.252 246.166 181.791 245.878 181.465C245.59 181.135 245.201 180.97 244.71 180.97ZM252.898 185.178C252.898 184.861 252.778 184.615 252.537 184.442C252.3 184.264 251.883 184.112 251.286 183.985C250.694 183.858 250.222 183.706 249.871 183.528C249.524 183.35 249.265 183.139 249.096 182.893C248.931 182.648 248.849 182.356 248.849 182.017C248.849 181.454 249.086 180.978 249.56 180.589C250.038 180.2 250.647 180.005 251.388 180.005C252.166 180.005 252.797 180.206 253.279 180.608C253.766 181.01 254.009 181.524 254.009 182.15H252.829C252.829 181.829 252.691 181.552 252.416 181.319C252.145 181.086 251.802 180.97 251.388 180.97C250.96 180.97 250.626 181.063 250.385 181.249C250.144 181.435 250.023 181.679 250.023 181.979C250.023 182.263 250.135 182.476 250.359 182.62C250.584 182.764 250.988 182.902 251.572 183.033C252.16 183.164 252.636 183.32 253 183.502C253.364 183.684 253.633 183.904 253.806 184.163C253.984 184.417 254.073 184.728 254.073 185.096C254.073 185.709 253.827 186.202 253.336 186.575C252.846 186.943 252.209 187.127 251.426 187.127C250.876 187.127 250.389 187.03 249.966 186.835C249.543 186.64 249.21 186.369 248.969 186.022C248.732 185.671 248.614 185.292 248.614 184.886H249.788C249.809 185.28 249.966 185.593 250.258 185.826C250.554 186.054 250.943 186.168 251.426 186.168C251.87 186.168 252.226 186.08 252.492 185.902C252.763 185.72 252.898 185.479 252.898 185.178ZM258.453 187.127C257.522 187.127 256.764 186.822 256.18 186.213C255.596 185.599 255.304 184.78 255.304 183.756V183.541C255.304 182.859 255.433 182.252 255.691 181.719C255.954 181.181 256.318 180.762 256.783 180.462C257.253 180.157 257.761 180.005 258.307 180.005C259.2 180.005 259.894 180.299 260.389 180.887C260.884 181.475 261.131 182.318 261.131 183.414V183.902H256.479C256.495 184.579 256.692 185.127 257.069 185.546C257.45 185.961 257.932 186.168 258.516 186.168C258.931 186.168 259.282 186.084 259.57 185.915C259.858 185.745 260.109 185.521 260.325 185.242L261.042 185.8C260.467 186.685 259.604 187.127 258.453 187.127ZM258.307 180.97C257.833 180.97 257.435 181.143 257.113 181.49C256.792 181.833 256.593 182.315 256.517 182.938H259.957V182.849C259.923 182.252 259.762 181.791 259.475 181.465C259.187 181.135 258.798 180.97 258.307 180.97ZM265.816 181.186C265.638 181.156 265.446 181.141 265.238 181.141C264.468 181.141 263.945 181.469 263.67 182.125V187H262.496V180.132H263.639L263.658 180.925C264.043 180.312 264.589 180.005 265.295 180.005C265.524 180.005 265.697 180.035 265.816 180.094V181.186ZM269.282 185.407L270.983 180.132H272.183L269.72 187H268.825L266.336 180.132H267.536L269.282 185.407ZM276.074 187.127C275.143 187.127 274.385 186.822 273.801 186.213C273.217 185.599 272.925 184.78 272.925 183.756V183.541C272.925 182.859 273.054 182.252 273.312 181.719C273.575 181.181 273.939 180.762 274.404 180.462C274.874 180.157 275.382 180.005 275.928 180.005C276.821 180.005 277.515 180.299 278.01 180.887C278.505 181.475 278.752 182.318 278.752 183.414V183.902H274.1C274.117 184.579 274.313 185.127 274.69 185.546C275.071 185.961 275.553 186.168 276.137 186.168C276.552 186.168 276.903 186.084 277.191 185.915C277.479 185.745 277.73 185.521 277.946 185.242L278.664 185.8C278.088 186.685 277.225 187.127 276.074 187.127ZM275.928 180.97C275.454 180.97 275.056 181.143 274.734 181.49C274.413 181.833 274.214 182.315 274.138 182.938H277.578V182.849C277.544 182.252 277.383 181.791 277.096 181.465C276.808 181.135 276.419 180.97 275.928 180.97ZM279.832 183.509C279.832 182.455 280.081 181.609 280.581 180.97C281.08 180.326 281.734 180.005 282.542 180.005C283.346 180.005 283.983 180.28 284.453 180.83V177.25H285.627V187H284.548L284.491 186.264C284.021 186.839 283.367 187.127 282.529 187.127C281.734 187.127 281.084 186.801 280.581 186.149C280.081 185.498 279.832 184.647 279.832 183.598V183.509ZM281.006 183.642C281.006 184.421 281.167 185.03 281.488 185.47C281.81 185.91 282.254 186.13 282.821 186.13C283.566 186.13 284.11 185.796 284.453 185.127V181.973C284.101 181.325 283.562 181.001 282.834 181.001C282.258 181.001 281.81 181.224 281.488 181.668C281.167 182.112 281.006 182.77 281.006 183.642ZM287.417 188.841L286.75 188.384C287.148 187.829 287.356 187.258 287.373 186.67V185.61H288.521V186.53C288.521 186.958 288.416 187.385 288.204 187.812C287.997 188.24 287.734 188.583 287.417 188.841ZM299.167 187H293.111V186.156L296.31 182.601C296.784 182.064 297.11 181.628 297.288 181.293C297.47 180.955 297.561 180.606 297.561 180.246C297.561 179.764 297.415 179.368 297.123 179.059C296.831 178.75 296.441 178.596 295.955 178.596C295.371 178.596 294.916 178.763 294.59 179.097C294.268 179.427 294.107 179.889 294.107 180.481H292.933C292.933 179.63 293.206 178.943 293.752 178.418C294.302 177.893 295.036 177.631 295.955 177.631C296.814 177.631 297.493 177.857 297.992 178.31C298.492 178.759 298.741 179.357 298.741 180.106C298.741 181.016 298.161 182.1 297.002 183.356L294.526 186.042H299.167V187ZM306.206 183.058C306.206 184.433 305.971 185.455 305.501 186.124C305.032 186.793 304.298 187.127 303.299 187.127C302.313 187.127 301.583 186.801 301.109 186.149C300.635 185.493 300.389 184.516 300.373 183.217V181.649C300.373 180.291 300.607 179.281 301.077 178.621C301.547 177.961 302.283 177.631 303.286 177.631C304.281 177.631 305.013 177.95 305.482 178.589C305.952 179.224 306.193 180.206 306.206 181.535V183.058ZM305.032 181.452C305.032 180.458 304.892 179.734 304.613 179.281C304.333 178.824 303.891 178.596 303.286 178.596C302.685 178.596 302.247 178.822 301.972 179.275C301.697 179.728 301.555 180.424 301.547 181.363V183.242C301.547 184.241 301.691 184.979 301.979 185.458C302.271 185.931 302.711 186.168 303.299 186.168C303.879 186.168 304.308 185.944 304.587 185.496C304.871 185.047 305.019 184.34 305.032 183.375V181.452ZM313.766 187H307.71V186.156L310.91 182.601C311.384 182.064 311.709 181.628 311.887 181.293C312.069 180.955 312.16 180.606 312.16 180.246C312.16 179.764 312.014 179.368 311.722 179.059C311.43 178.75 311.041 178.596 310.554 178.596C309.97 178.596 309.515 178.763 309.189 179.097C308.868 179.427 308.707 179.889 308.707 180.481H307.533C307.533 179.63 307.806 178.943 308.352 178.418C308.902 177.893 309.636 177.631 310.554 177.631C311.413 177.631 312.092 177.857 312.592 178.31C313.091 178.759 313.341 179.357 313.341 180.106C313.341 181.016 312.761 182.1 311.602 183.356L309.126 186.042H313.766V187ZM320.806 183.058C320.806 184.433 320.571 185.455 320.101 186.124C319.631 186.793 318.897 187.127 317.898 187.127C316.912 187.127 316.182 186.801 315.708 186.149C315.235 185.493 314.989 184.516 314.972 183.217V181.649C314.972 180.291 315.207 179.281 315.677 178.621C316.146 177.961 316.883 177.631 317.886 177.631C318.88 177.631 319.612 177.95 320.082 178.589C320.552 179.224 320.793 180.206 320.806 181.535V183.058ZM319.631 181.452C319.631 180.458 319.492 179.734 319.212 179.281C318.933 178.824 318.491 178.596 317.886 178.596C317.285 178.596 316.847 178.822 316.572 179.275C316.297 179.728 316.155 180.424 316.146 181.363V183.242C316.146 184.241 316.29 184.979 316.578 185.458C316.87 185.931 317.31 186.168 317.898 186.168C318.478 186.168 318.908 185.944 319.187 185.496C319.471 185.047 319.619 184.34 319.631 183.375V181.452ZM331.87 183.21C331.87 183.858 331.686 184.353 331.317 184.696C330.953 185.034 330.437 185.204 329.769 185.204C329.104 185.204 328.571 184.981 328.169 184.537C327.771 184.089 327.572 183.479 327.572 182.709V182.011C327.572 181.266 327.773 180.671 328.175 180.227C328.582 179.778 329.113 179.554 329.769 179.554C330.446 179.554 330.966 179.728 331.33 180.075C331.694 180.422 331.876 180.91 331.876 181.541H330.949C330.949 181.122 330.848 180.824 330.645 180.646C330.446 180.464 330.154 180.373 329.769 180.373C329.371 180.373 329.058 180.519 328.829 180.811C328.601 181.103 328.486 181.509 328.486 182.03V182.747C328.486 183.255 328.601 183.655 328.829 183.947C329.058 184.239 329.371 184.385 329.769 184.385C330.158 184.385 330.45 184.296 330.645 184.118C330.843 183.94 330.943 183.638 330.943 183.21H331.87ZM326.074 182.373C326.074 183.1 326.243 183.775 326.582 184.397C326.921 185.015 327.38 185.5 327.959 185.851C328.543 186.202 329.174 186.378 329.851 186.378C330.528 186.378 331.157 186.202 331.736 185.851C332.316 185.5 332.775 185.015 333.114 184.397C333.452 183.775 333.622 183.1 333.622 182.373C333.622 181.653 333.454 180.987 333.12 180.373C332.786 179.759 332.327 179.277 331.743 178.926C331.163 178.57 330.532 178.393 329.851 178.393C329.174 178.393 328.543 178.568 327.959 178.919C327.375 179.266 326.914 179.749 326.576 180.367C326.241 180.985 326.074 181.653 326.074 182.373ZM325.344 182.373C325.344 181.518 325.541 180.724 325.935 179.992C326.332 179.26 326.88 178.685 327.579 178.266C328.281 177.842 329.039 177.631 329.851 177.631C330.664 177.631 331.419 177.842 332.117 178.266C332.815 178.685 333.361 179.26 333.755 179.992C334.153 180.724 334.352 181.518 334.352 182.373C334.352 183.206 334.161 183.987 333.78 184.715C333.399 185.443 332.858 186.029 332.155 186.473C331.457 186.913 330.689 187.133 329.851 187.133C329.017 187.133 328.249 186.915 327.547 186.479C326.849 186.039 326.307 185.455 325.922 184.728C325.537 184 325.344 183.215 325.344 182.373Z" fill="white"/>
<g clip-path="url(#clip0)">
<path d="M380.141 150.659C374.316 147.967 366.164 149.158 365.82 149.209C365.052 149.325 364.524 150.041 364.64 150.808C364.756 151.576 365.473 152.103 366.239 151.988C366.315 151.976 373.895 150.867 378.962 153.209C379.153 153.298 379.353 153.339 379.551 153.339C380.082 153.339 380.59 153.037 380.827 152.523C381.152 151.819 380.845 150.984 380.141 150.659Z" fill="white"/>
<path d="M381.778 145.599C375.163 142.542 365.887 143.897 365.495 143.956C364.728 144.072 364.201 144.787 364.316 145.554C364.432 146.321 365.148 146.85 365.914 146.735C366.002 146.721 374.757 145.45 380.599 148.15C380.79 148.238 380.99 148.28 381.188 148.28C381.719 148.28 382.227 147.978 382.464 147.464C382.79 146.76 382.482 145.925 381.778 145.599Z" fill="white"/>
<path d="M382.879 140.314C375.572 136.937 365.31 138.435 364.877 138.501C364.11 138.617 363.582 139.332 363.698 140.099C363.813 140.866 364.529 141.395 365.296 141.279C365.394 141.264 375.166 139.845 381.7 142.864C381.891 142.952 382.091 142.994 382.289 142.994C382.819 142.994 383.327 142.692 383.565 142.178C383.89 141.474 383.583 140.639 382.879 140.314Z" fill="white"/>
<path d="M373.5 128.001C363.85 128.001 356 135.851 356 145.5C356 155.15 363.85 163.001 373.5 163.001C383.15 163.001 391 155.15 391 145.5C391 135.851 383.15 128.001 373.5 128.001ZM373.5 160.191C365.4 160.191 358.81 153.601 358.81 145.5C358.81 137.4 365.4 130.811 373.5 130.811C381.6 130.811 388.19 137.4 388.19 145.5C388.19 153.601 381.6 160.191 373.5 160.191Z" fill="white"/>
</g>
<path d="M309.762 146.719C309.4 145.148 308.115 143.989 306.568 143.816C302.905 143.407 299.196 143.405 295.505 143.407C291.813 143.405 288.105 143.407 284.441 143.816C282.895 143.989 281.61 145.148 281.249 146.719C280.734 148.957 280.728 151.399 280.728 153.703C280.728 156.007 280.728 158.449 281.243 160.687C281.604 162.258 282.889 163.417 284.436 163.59C288.099 164 291.807 164.001 295.499 164C299.191 164.001 302.898 164 306.563 163.59C308.109 163.417 309.394 162.258 309.755 160.687C310.27 158.449 310.273 156.007 310.273 153.703C310.272 151.399 310.276 148.957 309.762 146.719ZM289.155 148.454H287.017V159.816H285.03V148.454H282.931V146.592H289.155V148.454ZM294.55 159.817H292.763V158.742C292.053 159.555 291.379 159.952 290.723 159.952C290.147 159.952 289.751 159.719 289.573 159.22C289.475 158.922 289.415 158.45 289.415 157.755V149.963H291.2V157.218C291.2 157.636 291.2 157.853 291.217 157.912C291.259 158.189 291.395 158.33 291.634 158.33C291.992 158.33 292.367 158.054 292.763 157.494V149.963H294.55L294.55 159.817ZM301.333 156.859C301.333 157.77 301.271 158.427 301.152 158.845C300.914 159.578 300.436 159.952 299.726 159.952C299.091 159.952 298.478 159.599 297.881 158.862V159.817H296.095V146.592H297.881V150.911C298.457 150.201 299.069 149.842 299.726 149.842C300.436 149.842 300.914 150.216 301.152 150.954C301.272 151.35 301.333 152.002 301.333 152.935V156.859ZM308.071 155.215H304.5V156.962C304.5 157.874 304.799 158.329 305.412 158.329C305.852 158.329 306.108 158.09 306.21 157.613C306.226 157.517 306.25 157.12 306.25 156.404H308.071V156.664C308.071 157.24 308.049 157.636 308.033 157.814C307.973 158.21 307.833 158.568 307.616 158.884C307.122 159.6 306.389 159.952 305.457 159.952C304.523 159.952 303.812 159.616 303.296 158.943C302.917 158.45 302.722 157.674 302.722 156.626V153.175C302.722 152.122 302.895 151.352 303.274 150.854C303.79 150.179 304.501 149.844 305.413 149.844C306.309 149.844 307.019 150.179 307.519 150.854C307.893 151.352 308.072 152.122 308.072 153.175V155.215H308.071Z" fill="white"/>
<path d="M305.396 151.45C304.8 151.45 304.501 151.906 304.501 152.817V153.728H306.286V152.817C306.285 151.906 305.987 151.45 305.396 151.45Z" fill="white"/>
<path d="M298.771 151.45C298.477 151.45 298.179 151.589 297.88 151.884V157.89C298.178 158.188 298.477 158.33 298.771 158.33C299.286 158.33 299.547 157.89 299.547 157V152.794C299.547 151.906 299.286 151.45 298.771 151.45Z" fill="white"/>
<path d="M299.768 142.499C300.426 142.499 301.111 142.099 301.829 141.276V142.362H303.634V132.404H301.829V140.015C301.429 140.58 301.05 140.86 300.689 140.86C300.448 140.86 300.306 140.717 300.266 140.437C300.244 140.378 300.244 140.158 300.244 139.736V132.404H298.446V140.278C298.446 140.982 298.506 141.458 298.605 141.759C298.787 142.264 299.187 142.499 299.768 142.499Z" fill="white"/>
<path d="M287.206 136.951V142.362H289.207V136.951L291.614 129H289.591L288.226 134.247L286.805 129H284.7C285.121 130.239 285.56 131.483 285.982 132.723C286.624 134.587 287.025 135.992 287.206 136.951Z" fill="white"/>
<path d="M294.296 142.499C295.2 142.499 295.902 142.159 296.401 141.48C296.779 140.981 296.961 140.196 296.961 139.138V135.651C296.961 134.586 296.78 133.808 296.401 133.305C295.902 132.624 295.2 132.284 294.296 132.284C293.397 132.284 292.695 132.624 292.195 133.305C291.812 133.808 291.63 134.586 291.63 135.651V139.138C291.63 140.196 291.812 140.981 292.195 141.48C292.694 142.159 293.397 142.499 294.296 142.499ZM293.435 135.289C293.435 134.368 293.714 133.909 294.296 133.909C294.878 133.909 295.156 134.367 295.156 135.289V139.478C295.156 140.399 294.878 140.86 294.296 140.86C293.714 140.86 293.435 140.399 293.435 139.478V135.289Z" fill="white"/>
<path d="M230.898 126H204.102C201.84 126 200 127.84 200 130.102V156.898C200 159.16 201.84 161 204.102 161H230.898C233.16 161 235 159.16 235 156.898V130.102C235 127.84 233.16 126 230.898 126ZM232.266 156.898C232.266 157.652 231.652 158.266 230.898 158.266H223.105V147.123H227.329L228.027 142.885H223.105V139.945C223.105 138.785 223.996 137.895 225.156 137.895H227.959V133.656H225.156C221.675 133.656 218.869 136.476 218.869 139.957V142.885H214.766V147.123H218.869V158.266H204.102C203.348 158.266 202.734 157.652 202.734 156.898V130.102C202.734 129.348 203.348 128.734 204.102 128.734H230.898C231.652 128.734 232.266 129.348 232.266 130.102V156.898Z" fill="white"/>
<path d="M156.521 144.568C156.521 146.947 156.474 149.333 156.535 151.712C156.638 155.923 153.992 159.177 150.622 160.626C149.269 161.207 147.847 161.515 146.377 161.515C141.776 161.521 137.169 161.583 132.568 161.494C129.103 161.426 126.252 159.976 124.208 157.119C123.135 155.615 122.622 153.906 122.622 152.054C122.622 147.152 122.622 142.258 122.622 137.356C122.622 133.357 124.57 130.561 128.029 128.743C129.533 127.957 131.167 127.622 132.869 127.615C137.333 127.615 141.804 127.588 146.268 127.629C149.733 127.656 152.625 128.982 154.758 131.771C155.947 133.33 156.521 135.121 156.521 137.09C156.521 139.578 156.521 142.073 156.521 144.568ZM125.145 144.568C125.145 147.077 125.145 149.579 125.145 152.088C125.145 153.209 125.404 154.262 125.985 155.212C127.51 157.707 129.813 158.924 132.671 158.972C137.258 159.04 141.852 158.999 146.445 158.985C147.573 158.985 148.667 158.753 149.686 158.267C152.461 156.941 154.013 154.829 153.999 151.657C153.972 146.804 153.992 141.95 153.992 137.097C153.992 135.723 153.603 134.465 152.789 133.357C151.217 131.231 149.043 130.185 146.445 130.158C141.865 130.103 137.285 130.138 132.705 130.144C131.728 130.144 130.784 130.343 129.868 130.684C127.353 131.621 125.015 133.993 125.124 137.486C125.206 139.851 125.145 142.21 125.145 144.568Z" fill="white"/>
<path d="M139.609 151.814C135.2 151.814 131.646 148.301 131.639 143.926C131.632 139.619 135.214 136.092 139.596 136.092C143.991 136.085 147.56 139.605 147.566 143.946C147.566 148.28 144.005 151.808 139.609 151.814ZM139.609 149.285C142.61 149.285 145.044 146.886 145.037 143.933C145.03 141.007 142.597 138.614 139.609 138.614C136.608 138.614 134.161 141 134.161 143.946C134.168 146.899 136.608 149.292 139.609 149.285Z" fill="white"/>
<path d="M148.489 133.699C149.412 133.699 150.164 134.485 150.164 135.449C150.157 136.413 149.398 137.192 148.476 137.186C147.566 137.179 146.821 136.399 146.821 135.456C146.814 134.492 147.566 133.699 148.489 133.699Z" fill="white"/>
</g>
<defs>
<filter id="filter0_d" x="118" y="122" width="277" height="75.7041" filterUnits="userSpaceOnUse" color-interpolation-filters="sRGB">
<feFlood flood-opacity="0" result="BackgroundImageFix"/>
<feColorMatrix in="SourceAlpha" type="matrix" values="0 0 0 0 0 0 0 0 0 0 0 0 0 0 0 0 0 0 127 0"/>
<feOffset dy="4"/>
<feGaussianBlur stdDeviation="2"/>
<feColorMatrix type="matrix" values="0 0 0 0 0 0 0 0 0 0 0 0 0 0 0 0 0 0 0.25 0"/>
<feBlend mode="normal" in2="BackgroundImageFix" result="effect1_dropShadow"/>
<feBlend mode="normal" in="SourceGraphic" in2="effect1_dropShadow" result="shape"/>
</filter>
<filter id="filter1_f" x="0" y="0" width="513" height="308" filterUnits="userSpaceOnUse" color-interpolation-filters="sRGB">
<feFlood flood-opacity="0" result="BackgroundImageFix"/>
<feBlend mode="normal" in="SourceGraphic" in2="BackgroundImageFix" result="shape"/>
<feGaussianBlur stdDeviation="61" result="effect1_foregroundBlur"/>
</filter>
<clipPath id="clip0">
<rect width="35" height="35" fill="white" transform="translate(356 128)"/>
</clipPath>
</defs>
</svg>
