<svg width="39" height="39" viewBox="0 0 39 39" fill="none" xmlns="http://www.w3.org/2000/svg">
<path d="M38.4668 19.5762C38.4668 22.227 38.4135 24.8853 38.482 27.5361C38.5963 32.2283 35.6484 35.8541 31.8932 37.4689C30.385 38.1164 28.8006 38.4592 27.1629 38.4592C22.0365 38.4668 16.9025 38.5353 11.7762 38.4363C7.91427 38.3602 4.7379 36.7453 2.46036 33.5613C1.26447 31.8855 0.693176 29.9812 0.693176 27.917C0.693176 22.4555 0.693176 17.0016 0.693176 11.54C0.693176 7.08398 2.86407 3.96855 6.71837 1.94238C8.39415 1.06641 10.2147 0.693164 12.1113 0.685547C17.0854 0.685547 22.067 0.655078 27.041 0.700781C30.9029 0.73125 34.125 2.20898 36.5016 5.3168C37.827 7.05352 38.4668 9.04922 38.4668 11.243C38.4668 14.0156 38.4668 16.7959 38.4668 19.5762ZM3.50392 19.5762C3.50392 22.3717 3.50392 25.1596 3.50392 27.9551C3.50392 29.2043 3.79337 30.3773 4.44083 31.4361C6.13946 34.2164 8.70646 35.5723 11.8904 35.6256C17.0016 35.7018 22.1203 35.6561 27.2391 35.6408C28.4959 35.6408 29.7147 35.3818 30.8496 34.841C33.9422 33.3633 35.6713 31.0096 35.6561 27.4752C35.6256 22.067 35.6484 16.6588 35.6484 11.2506C35.6484 9.71953 35.2143 8.31797 34.3078 7.08398C32.5559 4.71504 30.1336 3.54961 27.2391 3.51914C22.1356 3.4582 17.032 3.49629 11.9285 3.50391C10.8393 3.50391 9.7881 3.7248 8.76739 4.10566C5.96427 5.14922 3.35919 7.79238 3.48107 11.6848C3.57247 14.3203 3.50392 16.9482 3.50392 19.5762Z" fill="black" fill-opacity="0.72"/>
<path d="M19.6219 27.6504C14.7088 27.6504 10.7479 23.7352 10.7402 18.8602C10.7326 14.0613 14.724 10.1309 19.6066 10.1309C24.5045 10.1233 28.4807 14.0461 28.4883 18.883C28.4883 23.7123 24.5197 27.6428 19.6219 27.6504ZM19.6219 24.832C22.9658 24.832 25.6775 22.1584 25.6699 18.8678C25.6623 15.6076 22.9506 12.9416 19.6219 12.9416C16.2779 12.9416 13.551 15.6 13.551 18.883C13.5586 22.1736 16.2779 24.8397 19.6219 24.832Z" fill="black" fill-opacity="0.72"/>
<path d="M29.5166 7.46484C30.5449 7.46484 31.3828 8.34082 31.3828 9.41484C31.3752 10.4889 30.5297 11.3572 29.5014 11.3496C28.4883 11.342 27.658 10.4736 27.658 9.42246C27.6504 8.34844 28.4883 7.46484 29.5166 7.46484Z" fill="black" fill-opacity="0.72"/>
</svg>
