<svg width="42" height="42" viewBox="0 0 42 42" fill="none" xmlns="http://www.w3.org/2000/svg">
<path d="M16.3256 0C7.31006 0 0 7.30923 0 16.3238C0 25.3384 7.31006 32.6477 16.3257 32.6477C19.7925 32.6477 23.0077 31.5664 25.6505 29.7247L25.6525 29.7228L37.7603 41.8293C37.985 42.054 38.3423 42.0598 38.5728 41.8293L41.836 38.5665C42.0607 38.3418 42.0492 37.9693 41.8341 37.7542L29.728 25.6495C31.5699 23.0051 32.6513 19.7902 32.6513 16.3238C32.6513 7.30923 25.3412 0 16.3256 0ZM16.3256 28.8067C9.4304 28.8067 3.84128 23.2183 3.84128 16.3238C3.84128 9.4294 9.43047 3.84091 16.3256 3.84091C23.2208 3.84091 28.8099 9.4294 28.8099 16.3238C28.8099 23.2183 23.2208 28.8067 16.3256 28.8067Z" fill="black"/>
</svg>
