<svg width="39" height="39" viewBox="0 0 39 39" fill="none" xmlns="http://www.w3.org/2000/svg">
<g clip-path="url(#clip0)">
<path d="M26.9 25.2483C20.4097 22.2489 11.3254 23.5756 10.942 23.6334C10.087 23.7626 9.49863 24.5601 9.62784 25.4151C9.75704 26.27 10.5552 26.8578 11.4095 26.7292C11.4943 26.7163 19.9397 25.4806 25.5864 28.0904C25.7989 28.1887 26.0225 28.2352 26.2423 28.2352C26.8338 28.235 27.3999 27.8983 27.6643 27.3262C28.0269 26.5414 27.6848 25.6111 26.9 25.2483Z" fill="black" fill-opacity="0.72"/>
<path d="M28.724 19.6107C21.3532 16.2045 11.0169 17.714 10.5805 17.7798C9.72592 17.909 9.13793 18.7061 9.26672 19.5606C9.3953 20.4154 10.1931 21.0042 11.0474 20.8758C11.1451 20.861 20.9007 19.4446 27.4105 22.453C27.6234 22.5513 27.8465 22.5979 28.0663 22.5979C28.6579 22.5976 29.2239 22.261 29.4886 21.6886C29.8512 20.9038 29.5089 19.9735 28.724 19.6107Z" fill="black" fill-opacity="0.72"/>
<path d="M29.9506 13.721C21.8089 9.95824 10.3739 11.6279 9.89107 11.7007C9.03653 11.8299 8.44854 12.6271 8.57733 13.4816C8.70611 14.3361 9.50409 14.9258 10.358 14.7966C10.4672 14.7801 21.3562 13.1983 28.637 16.5631C28.8495 16.6614 29.0731 16.7079 29.2929 16.7079C29.8844 16.7079 30.4505 16.371 30.7149 15.7989C31.0777 15.0139 30.7354 14.0838 29.9506 13.721Z" fill="black" fill-opacity="0.72"/>
<path d="M19.5001 0.000976562C8.74763 0.000976562 0 8.7484 0 19.5002C0 30.2527 8.74763 39.0006 19.5001 39.0006C30.2524 39.0006 39 30.2527 39 19.5002C39 8.7484 30.2524 0.000976562 19.5001 0.000976562ZM19.5001 35.8696C10.474 35.8696 3.13094 28.5265 3.13094 19.5002C3.13094 10.4746 10.474 3.13171 19.5001 3.13171C28.526 3.13171 35.8691 10.4746 35.8691 19.5002C35.8691 28.5265 28.526 35.8696 19.5001 35.8696Z" fill="black" fill-opacity="0.72"/>
</g>
<defs>
<clipPath id="clip0">
<rect width="39" height="39" fill="white"/>
</clipPath>
</defs>
</svg>
