<svg width="39" height="39" viewBox="0 0 39 39" fill="none" xmlns="http://www.w3.org/2000/svg">
<path d="M35.3915 19.7445C34.9885 17.9936 33.5562 16.702 31.8324 16.5097C27.7512 16.0538 23.6184 16.0517 19.5058 16.0538C15.3915 16.0517 11.2595 16.0538 7.17703 16.5097C5.45406 16.7024 4.02269 17.994 3.62012 19.7445C3.04637 22.2378 3.03949 24.9594 3.03949 27.5267C3.03949 30.094 3.03949 32.8152 3.61324 35.3085C4.01581 37.059 5.44718 38.3505 7.17101 38.5432C11.2526 38.9996 15.3846 39.0013 19.4985 38.9996C23.6128 39.0017 27.7439 38.9996 31.8268 38.5432C33.5498 38.3505 34.982 37.059 35.3846 35.3085C35.9579 32.8152 35.9609 30.094 35.9609 27.5267C35.9605 24.959 35.9648 22.2378 35.3915 19.7445ZM12.4298 21.6769H10.0471V34.3382H7.83379V21.6769H5.49449V19.603H12.4298V21.6769ZM18.4413 34.3386H16.4504V33.1408C15.6594 34.0474 14.9085 34.4896 14.1769 34.4896C13.5356 34.4896 13.0943 34.2298 12.8952 33.6737C12.7868 33.3416 12.7197 32.816 12.7197 32.041V23.359H14.7089V31.4427C14.7089 31.909 14.7089 32.1511 14.727 32.2165C14.7747 32.5253 14.9257 32.6819 15.1923 32.6819C15.5915 32.6819 16.0087 32.3743 16.4499 31.7503V23.359H18.4409L18.4413 34.3386ZM25.9994 31.0432C25.9994 32.0586 25.931 32.7902 25.7981 33.2556C25.5323 34.0724 25.0003 34.4896 24.2089 34.4896C23.501 34.4896 22.818 34.0964 22.1526 33.275V34.339H20.1634V19.603H22.1526V24.4154C22.7952 23.6244 23.4773 23.2244 24.2089 23.2244C25.0003 23.2244 25.5328 23.6412 25.7981 24.4631C25.9319 24.9048 25.9994 25.6308 25.9994 26.6704V31.0432ZM33.5076 29.2114H29.5288V31.1576C29.5288 32.1739 29.8613 32.6814 30.5451 32.6814C31.035 32.6814 31.3202 32.4152 31.4337 31.8836C31.4522 31.7756 31.4784 31.3335 31.4784 30.5357H33.5081V30.826C33.5081 31.4673 33.4835 31.909 33.4655 32.1077C33.3988 32.5481 33.2423 32.9476 33.001 33.2995C32.45 34.0969 31.6337 34.49 30.5946 34.49C29.5537 34.49 28.7615 34.1154 28.1865 33.3657C27.7645 32.816 27.5478 31.9507 27.5478 30.7838V26.9383C27.5478 25.7646 27.74 24.9061 28.1628 24.3513C28.7374 23.5999 29.5292 23.2257 30.5455 23.2257C31.5438 23.2257 32.3352 23.5999 32.8926 24.3513C33.3094 24.9061 33.5085 25.7646 33.5085 26.9383V29.2114H33.5076Z" fill="black" fill-opacity="0.72"/>
<path d="M30.5275 25.0157C29.8626 25.0157 29.5292 25.5237 29.5292 26.5387V27.5546H31.5184V26.5387C31.518 25.5237 31.1855 25.0157 30.5275 25.0157Z" fill="black" fill-opacity="0.72"/>
<path d="M23.1444 25.0157C22.8167 25.0157 22.4847 25.1706 22.1522 25.4996V32.1915C22.4842 32.5244 22.8167 32.6818 23.1444 32.6818C23.7182 32.6818 24.0098 32.1915 24.0098 31.2001V26.5138C24.0098 25.5237 23.7182 25.0157 23.1444 25.0157Z" fill="black" fill-opacity="0.72"/>
<path d="M24.2558 15.0418C24.9891 15.0418 25.7521 14.5962 26.5525 13.6793V14.8896H28.5632V3.79346H26.5525V12.2741C26.1069 12.9038 25.6846 13.2152 25.2824 13.2152C25.0132 13.2152 24.8549 13.056 24.8111 12.7442C24.7865 12.6784 24.7865 12.4337 24.7865 11.9627V3.79346H22.7823V12.5675C22.7823 13.3511 22.8494 13.8814 22.9603 14.2173C23.1625 14.7795 23.6085 15.0418 24.2558 15.0418Z" fill="black" fill-opacity="0.72"/>
<path d="M10.2583 8.85916V14.8896H12.4879V8.85916L15.17 0H12.9154L11.3942 5.84718L9.81139 0H7.46521C7.93531 1.38018 8.42433 2.76725 8.89443 4.14873C9.60968 6.22524 10.0561 7.7908 10.2583 8.85916Z" fill="black" fill-opacity="0.72"/>
<path d="M18.1583 15.0418C19.1656 15.0418 19.9484 14.6629 20.5036 13.906C20.9256 13.3507 21.1277 12.4759 21.1277 11.2966V7.41105C21.1277 6.22484 20.926 5.35776 20.5036 4.79734C19.9484 4.03822 19.166 3.6593 18.1583 3.6593C17.1562 3.6593 16.3738 4.03822 15.8173 4.79734C15.3902 5.35776 15.188 6.22484 15.188 7.41105V11.2966C15.188 12.4759 15.3902 13.3507 15.8173 13.906C16.3734 14.6629 17.1562 15.0418 18.1583 15.0418ZM17.1988 7.00805C17.1988 5.9814 17.5102 5.46958 18.1583 5.46958C18.8065 5.46958 19.117 5.98097 19.117 7.00805V11.6755C19.117 12.7021 18.8065 13.2156 18.1583 13.2156C17.5102 13.2156 17.1988 12.7021 17.1988 11.6755V7.00805Z" fill="black" fill-opacity="0.72"/>
</svg>
